<?xml version="1.0" encoding="utf-8"?>
<!-- Generator: Adobe Illustrator 21.0.0, SVG Export Plug-In . SVG Version: 6.00 Build 0)  -->
<svg version="1.1" id="Layer_2" xmlns="http://www.w3.org/2000/svg" xmlns:xlink="http://www.w3.org/1999/xlink" x="0px" y="0px"
	 viewBox="0 0 700 700" enable-background="new 0 0 700 700" xml:space="preserve">
<g id="Layer_6">
	<path fill="#1A1A1A" d="M233.6,115.5l-1.5,467.3c0,10.9,11.8,17.7,21.3,12.3l408.9-232.4c9.5-5.4,9.5-19,0.1-24.4L255,103.3
		C245.5,97.8,233.6,104.6,233.6,115.5z"/>
</g>
<g id="Layer_5">
	<path fill="#474747" d="M203.2,90C94.2,137,19.1,235,18.8,348.5c-0.4,113.5,74.1,211.9,182.8,259.6c0-0.1,0-0.2,0-0.3l1.6-517.5
		C203.2,90.2,203.2,90.1,203.2,90z"/>
</g>
<g id="Layer_4">
	<path fill="#474747" d="M346.1,638.5c0.2,0,0.3,0,0.5,0l285.2,0.9c26.2,0.1,47.8-21.1,47.8-47.1l0.6-183.1c0-6.1-6.6-10-11.9-7
		L268,629.6C293,635.1,319.1,638.2,346.1,638.5z"/>
</g>
<g id="Layer_3">
	<path fill="#474747" d="M633.7,61.5l-285.2-0.9c-0.2,0-0.3,0-0.5,0c-26.9,0.1-53,3-78.1,8.4l398.8,230c5.3,3.1,12-0.8,12-6.9
		l0.6-183.1C681.3,82.9,659.9,61.6,633.7,61.5z"/>
</g>
</svg>
